<?xml version="1.0" encoding="UTF-8"?>
<!-- Generator: visioncortex VTracer 0.6.0 -->
<svg version="1.1" xmlns="http://www.w3.org/2000/svg" width="512" height="512">
<path d="M0 0 C1.0637232971191395 -0.00715530395507713 2.127446594238279 -0.014310607910157813 3.2234039306640625 -0.0216827392578125 C4.966538696289064 -0.025716094970704262 4.966538696289064 -0.025716094970704262 6.7448883056640625 -0.0298309326171875 C7.973047637939459 -0.036402130126951704 9.201206970214855 -0.04297332763671946 10.466583251953125 -0.04974365234375 C14.537951102655853 -0.06947938708354684 18.609279524103414 -0.08114785489597764 22.680679321289063 -0.0911102294921875 C24.087016616909807 -0.09516032745770531 25.49335372141772 -0.09927732415239987 26.899690628051758 -0.10346031188964844 C33.51356501302783 -0.12250980752904184 40.12742830909863 -0.13673688530294115 46.741324841976166 -0.14507228136062622 C54.34870480052703 -0.15482024213816814 61.95579189600443 -0.18107638073356824 69.56306880712509 -0.22157317399978638 C75.45884761134107 -0.2518690706636768 81.35454316783495 -0.26655414518248577 87.25039821863174 -0.26985329389572144 C90.76365711954787 -0.2721900260283121 94.27660313862606 -0.28096733414383834 97.7897777557373 -0.30631446838378906 C101.72152109513718 -0.3342220278097727 105.6528890730084 -0.3297231462985586 109.58473205566406 -0.3227996826171875 C110.7286038208008 -0.3356097412109378 111.87247558593748 -0.34841979980468807 113.05101013183594 -0.3616180419921875 C127.84889027133136 -0.26727077184731485 140.92229053661907 5.016049816119438 151.76124572753906 15.095901489257813 C158.45917138954036 22.01451120306836 162.97547385048586 30.829200186105233 167.55958557128906 39.20967102050781 C168.7964673787206 41.44482101305228 170.0347511019164 43.67919578610156 171.27442932128906 45.91279602050781 C172.1694415283203 47.52638000488281 172.1694415283203 47.52638000488281 173.08253479003906 49.17256164550781 C175.20690300803523 52.96888056132849 177.397147843452 56.72166158711045 179.62208557128906 60.45967102050781 C183.97580306767776 67.78754797864052 188.21322251124258 75.18003409301666 192.43458557128906 82.58467102050781 C197.70457706208293 91.82645287423935 202.98972021185233 101.05895338263007 208.30958557128906 110.27217102050781 C208.92479064941404 111.33766174316406 209.53999572753906 112.40315246582031 210.17384338378906 113.50093078613281 C212.03113124033615 116.7166099577922 213.8889930756008 119.93195672833735 215.74708557128906 123.14717102050781 C225.4540076462174 139.94387767570242 235.11576295411527 156.7656202339433 244.73097229003906 173.6149444580078 C246.73644371549562 177.12897780806378 248.74347087645788 180.64212071019438 250.75099182128906 184.1549835205078 C251.08083572387693 184.7321713256836 251.41067962646486 185.30935913085938 251.75051879882813 185.90403747558594 C253.41433916021998 188.8154118737396 255.07833851152054 191.7266839033146 256.74244689941406 194.6378936767578 C259.76369810490456 199.9237092975962 262.78382361659317 205.21015222262469 265.7983856201172 210.49978637695313 C267.48887632034814 213.4660049652308 269.18024492324 216.43172221860908 270.87208557128906 219.3971710205078 C271.37092254638674 220.27159347534177 271.37092254638674 220.27159347534177 271.8798370361328 221.16368103027344 C276.49496904749805 229.2496359693514 281.1637775037562 237.3026177863809 285.87208557128906 245.3346710205078 C290.7386659176491 253.64719614796655 295.5286084625635 261.99963671387275 300.24708557128906 270.3971710205078 C300.81056701660157 271.39643615722656 301.3740484619141 272.3957012939453 301.95460510253906 273.4252471923828 C303.5744626976408 276.3210266383562 305.1692170840915 279.2283100845133 306.74708557128906 282.1471710205078 C307.2975152587891 283.1648858642578 307.8479449462891 284.18260070800784 308.41505432128906 285.2311553955078 C315.19652394555544 298.21118381677314 317.6251105981912 313.734678001555 313.43458557128906 328.0846710205078 C307.34116201385365 343.435002839413 297.7435738072089 357.68767441858705 289.41114807128906 371.8854522705078 C286.3243743489431 377.1491356276136 283.2728200013083 382.432267540039 280.23243713378906 387.7228546142578 C274.62916610578895 397.47195793305383 268.9929983015824 407.2015281502046 263.2829132080078 416.8884735107422 C262.2822166104823 418.58752319015997 261.2853327365317 420.2888166907063 260.28858947753906 421.9901885986328 C250.11382872462735 439.1971557926595 240.0809021349042 452.12420561620013 219.97306764125824 457.72648656368256 C215.05400894991539 458.6561308593744 210.01534586109256 458.4236149445231 205.02743530273438 458.4078674316406 C203.10168553620576 458.4136057522893 203.10168553620576 458.4136057522893 201.13703173398972 458.41945999860764 C197.58448789421772 458.42972853889813 194.03204510596134 458.42756108753343 190.47949302196503 458.4232794046402 C186.64362050956515 458.42081002089014 182.80777219203839 458.4298291156105 178.97190856933594 458.43731689453125 C171.46036185099155 458.4500611647421 163.9488508852499 458.4518578293306 156.4372951760888 458.44951663166285 C150.32915106681435 458.44773258553244 144.22101779816433 458.44948497942505 138.1128749847412 458.4537410736084 C136.8081364553608 458.4546338571049 136.8081364553608 458.4546338571049 135.4770395718515 458.4555446766317 C133.70986408330805 458.4567564546475 131.94268859637862 458.4579705887313 130.1755131110549 458.459187053144 C113.60451096143424 458.47006207592756 97.0335291630484 458.4679005983087 80.46252586692572 458.4618022069335 C65.31674722158692 458.4566361711787 50.17103295481493 458.46788028099655 35.02526704221964 458.4869004264474 C19.462450617937236 458.5062939420102 3.8996646233011916 458.5145319748113 -11.663163959980011 458.5107771754265 C-20.395929143391413 458.50886703149274 -29.128639575292738 458.51133422773086 -37.86139488220215 458.52549171447754 C-45.297950483426575 458.53742596909876 -52.73441765221159 458.53878772247145 -60.170974515378475 458.52670154720545 C-63.96184108066785 458.5208264520547 -67.75254606302411 458.5196751596642 -71.54340171813965 458.5317039489746 C-75.66184353389339 458.54461970188925 -79.77990338481573 458.53406543258075 -83.89834594726563 458.5213928222656 C-85.08426572501659 458.5287671071291 -86.27018550276756 458.53614139199254 -87.49204224348068 458.5437391400337 C-103.16636646189711 458.44259917619394 -117.48571350252779 453.79065011355345 -128.91307067871094 442.7604522705078 C-133.4584138048332 437.68393382079864 -136.85322223190911 432.015631411327 -140.25291442871094 426.1471710205078 C-140.81752380371094 425.1728009033203 -141.38213317871094 424.1984307861328 -141.96385192871094 423.1945343017578 C-145.71506905614564 416.6950836719883 -149.4276925706807 410.17432462253106 -153.12841796875 403.64605712890625 C-156.66002210296114 397.42033961358885 -160.23419005471027 391.21946375311234 -163.81541442871094 385.0221710205078 C-164.42546325683594 383.96489807128904 -165.03551208496094 382.9076251220703 -165.66404724121094 381.8183135986328 C-168.8374762600766 376.3200756956298 -172.01914582609496 370.8267530170073 -175.20994567871094 365.3385772705078 C-186.4913069018861 345.91297753936004 -186.4913069018861 345.91297753936004 -191.56541442871094 336.5221710205078 C-191.92039001464843 335.8782037353516 -192.27536560058593 335.23423645019534 -192.64109802246094 334.5707550048828 C-198.8329259421585 322.9017793535148 -199.64242866371947 306.70763663158573 -195.94041442871094 294.0846710205078 C-190.54594274353852 280.70333136329566 -182.38275404916044 268.24232726453397 -175.03416442871094 255.8620147705078 C-171.64063131710316 250.1316847772672 -168.3250761758483 244.35656742326478 -165.00291442871094 238.5846710205078 C-160.11151742338046 230.09057672413496 -155.19912937057663 221.6094630332148 -150.25291442871094 213.1471710205078 C-145.39183861826726 204.82968091627464 -140.56143233436188 196.4951546835142 -135.75291442871094 188.1471710205078 C-130.3737736311345 178.80853895543694 -124.96031996129472 169.49076784601235 -119.52244567871094 160.1862335205078 C-115.24069320996477 152.85433378750878 -110.99080504341605 145.5044986443876 -106.75291442871094 138.1471710205078 C-101.94439599012506 129.79918643228245 -97.1138576016076 121.4647391806484 -92.25291442871094 113.14717102050781 C-87.41615000637623 104.8694000364755 -82.60429468040421 96.57773968729127 -77.81541442871094 88.27217102050781 C-77.19207214355468 87.19121154785157 -76.56872985839844 86.11025207519532 -75.92649841308594 84.99653625488281 C-72.79174627132312 79.55813965440744 -69.660909069256 74.11751892766716 -66.53416442871094 68.67451477050781 C-63.43463449879772 63.28137339541259 -60.322023982164296 57.895949798590706 -57.20164489746094 52.51484680175781 C-55.85787098893621 50.19261962884498 -54.517897484962816 47.868572262208545 -53.18309020996094 45.54121398925781 C-51.43278852385632 42.4903970625314 -49.67009755469263 39.44702737966176 -47.89961242675781 36.40788269042969 C-46.91502050805022 34.711116635594266 -45.942247573037804 33.007509140988496 -44.96995544433594 31.303665161132813 C-35.894706780471296 15.795809932225524 -24.776972672845147 5.804075565954427 -7.412520408630371 0.5950899124145508 C-4.894903581492571 0.07291681697823194 -2.5720504192704823 0.011904130141960678 0 0 Z M58.74708557128906 148.1471710205078 C57.82735125796296 149.5660459582305 56.9608294866797 151.01939422749572 56.11427307128906 152.4831085205078 C55.563279418945314 153.43169738769532 55.012285766601565 154.3802862548828 54.44459533691406 155.3576202392578 C53.542453002929676 156.92407287597655 53.542453002929676 156.92407287597655 52.62208557128906 158.5221710205078 C51.68417175292967 160.14083068847657 51.68417175292967 160.14083068847657 50.72731018066406 161.7921905517578 C49.062078841705386 164.66814107739057 47.40017875689753 167.54595758683675 45.74031066894531 170.4250030517578 C44.16503257490322 173.15640148483664 42.58666672560145 175.8860149014017 41.00880432128906 178.6159210205078 C37.249848255170036 185.123430531035 33.497887677141364 191.63495922415424 29.747085571289063 198.1471710205078 C21.87045968354306 211.8227141640957 13.975884652222504 225.48678059571498 6.0141754150390625 239.1129913330078 C1.757257925108803 246.40339563375278 -2.473506560406463 253.70855698456762 -6.6904144287109375 261.0221710205078 C-7.305780639648447 262.0893536376953 -7.921146850585927 263.1565362548828 -8.555160522460938 264.2560577392578 C-11.481546417142852 269.33318854480837 -14.405500459105582 274.411708325109 -17.32598876953125 279.4922332763672 C-18.349406978670686 281.272184418747 -19.373444559375116 283.05177771361207 -20.397689819335938 284.8312530517578 C-21.680700701556418 287.06066439117535 -22.96251530917914 289.2907647787264 -24.242904663085938 291.5216827392578 C-26.814685097847985 295.98900138425665 -29.402290782297 300.4231709410194 -32.18260192871094 304.7643585205078 C-34.42691697889714 307.7704749925649 -34.42691697889714 307.7704749925649 -34.25291442871094 310.1471710205078 C-2.746174690448754 310.7810060711048 28.75314383974012 311.24778288325507 60.26661682128906 311.2448272705078 C60.95282529354097 311.24476291179656 61.639033765792874 311.2446985530853 62.346036434173584 311.2446322441101 C70.65032040608065 311.2430191327458 78.9545837494548 311.2328431673052 87.25885570049286 311.21919763088226 C94.4353295357322 311.2076288002594 101.61180488320855 311.2024272031492 108.78828585147858 311.1974946260452 C123.44122861845642 311.1872941551012 138.09415674624256 311.1699429572219 152.74708557128906 311.1471710205078 C151.48322242594998 308.76596026640243 150.21806181124816 306.38545396670645 148.95216369628906 304.0053253173828 C148.59809448242186 303.3379106903076 148.24402526855465 302.67049606323246 147.8792266845703 301.9828567504883 C144.812765210512 296.2213423116074 141.57038231105588 290.5768324706205 138.24708557128906 284.9596710205078 C133.0412470555665 276.097612541378 127.8984082411223 267.20182115208456 122.80958557128906 258.2721710205078 C117.64685674352216 249.21609667257212 112.46342753535703 240.17252148237958 107.24708557128906 231.1471710205078 C101.71702953578506 221.57745962863018 96.2208837813107 211.98887250383598 90.74388122558594 202.3887481689453 C85.79181986048985 193.7096940663451 80.8106143915378 185.04811116632885 75.80958557128906 176.3971710205078 C70.3879315940627 167.01768848635965 65.02173854516263 157.61009857797205 59.74708557128906 148.1471710205078 C59.41708557128908 148.1471710205078 59.087085571289094 148.1471710205078 58.74708557128906 148.1471710205078 Z " fill="#00AC3C" transform="translate(197.25291442871094,26.852828979492188)"/>
<path d="M0 0 C3.7221106627873155 1.4189729299524032 6.373693244989909 2.856249645406301 9.375 5.5 C10.083984375 6.108437500000001 10.79296875 6.716875000000002 11.5234375 7.34375 C18.32066272853922 14.634149298748696 23.057536264401733 23.369685048744586 27.8125 32.0625 C29.04938180743153 34.297649992544464 30.28766553062735 36.53202476559375 31.52734375 38.765625 C32.124018554687495 39.84134765625001 32.72069335937499 40.9170703125 33.33544921875 42.025390625 C35.459817436746164 45.82170954082065 37.65006227216293 49.574490566602634 39.875 53.3125 C44.228717496388754 60.64037695813272 48.466136939953515 68.03286307250886 52.6875 75.4375 C57.95749149079393 84.67928185373154 63.242634640563324 93.9117823621223 68.5625 103.125 C69.17770507812497 104.19049072265625 69.79291015625 105.2559814453125 70.4267578125 106.353759765625 C72.28404566904715 109.56943893728442 74.14190750431169 112.78478570782954 76 116 C85.70692207492834 132.79670665519455 95.36867738282626 149.61844921343555 104.98388671875 166.4677734375 C106.98935814420656 169.98180678755602 108.99638530516881 173.49494968968656 111.00390625 177.0078125 C111.33375015258787 177.58500030517578 111.66359405517579 178.16218811035156 112.00343322753906 178.75686645507813 C113.66725358893092 181.66824085323185 115.33125294023137 184.57951288280668 116.995361328125 187.49072265625 C120.01661253361544 192.77653827708835 123.0367380453041 198.06298120211684 126.05130004882813 203.3526153564453 C127.74179074905902 206.3188339447229 129.43315935195096 209.2845511981013 131.125 212.25 C131.62383697509767 213.12442245483396 131.62383697509767 213.12442245483396 132.13275146484375 214.01651000976563 C136.74788347620893 222.10246494884353 141.4166919324672 230.15544676587308 146.125 238.1875 C150.99158034636002 246.50002512745868 155.78152289127445 254.852465693365 160.5 263.25 C161.0634814453125 264.24926513671875 161.626962890625 265.2485302734375 162.20751953125 266.278076171875 C163.82737712635168 269.17385561784835 165.42213151280248 272.0811390640055 167 275 C167.5504296875 276.01771484375 168.10085937500003 277.0354296875 168.66796875 278.083984375 C175.44943837426638 291.06401279626533 177.87802502690215 306.5875069810472 173.6875 320.9375 C167.59407644256464 336.2878318189052 157.99648823591986 350.54050339807924 149.6640625 364.73828125 C146.57728877765408 370.00196460710566 143.5257344300192 375.28509651953124 140.4853515625 380.57568359375 C134.8820805344999 390.324786912546 129.24591273029336 400.05435712969677 123.53582763671875 409.7413024902344 C122.53513103919323 411.44035216965216 121.53824716524264 413.1416456701985 120.54150390625 414.843017578125 C109.88211214343039 432.8695647201428 109.88211214343039 432.8695647201428 102.8125 439.0625 C101.99394531249999 439.7959765625 101.17539062499998 440.529453125 100.33203125 441.28515625 C98.11325191088622 442.9167209566515 96.69015886594468 443.59802223842206 94 444 C87.64907849470421 433.3133532362811 81.43736607123321 422.5504004608614 75.27978515625 411.7513427734375 C70.37725369356235 403.15352534772313 65.45277093563232 394.5690278509161 60.5 386 C55.331586830773745 377.05451266173236 50.186135189995525 368.0961957890569 45.0625 359.125 C44.568829345703136 358.26091018676755 44.568829345703136 358.26091018676755 44.065185546875 357.3793640136719 C40.63501664805108 351.375203262072 37.20858373015466 345.36894800438444 33.79112243652344 339.3575439453125 C32.370058418823874 336.858518202696 30.947304770533208 334.3604564187118 29.524383544921875 331.86248779296875 C28.54071545731756 330.1340428576728 27.559489203638236 328.40420895287656 26.578369140625 326.67431640625 C21.303004034525543 317.41455121410746 15.90634021372773 308.2227887514126 9.90625 299.41015625 C6.438515323702973 294.2704780690597 3.4861887924379857 288.86654585207935 0.5 283.4375 C-4.259200244462875 274.858874876225 -9.095802527505384 266.33521018236104 -14.0625 257.875 C-18.611945740649162 250.12158558910778 -23.09483481932216 242.3363105431223 -27.5 234.5 C-31.928360072821874 226.6236192592565 -36.43140016501184 218.79586682659126 -41 211 C-46.11576723271435 202.27044575962873 -51.1326627656386 193.49120280543215 -56.090087890625 184.6708984375 C-60.68993552972711 176.5049240649272 -65.40194203883527 168.40699903629692 -70.15625 160.330078125 C-71.24244004043396 158.4799601010457 -72.32191885446008 156.62588256455146 -73.39404296875 154.767578125 C-74.51153164175548 152.8417873683581 -75.65309985244693 150.92985200584778 -76.81298828125 149.029296875 C-77.38130371093752 148.06572265625 -77.94961914062497 147.1021484375 -78.53515625 146.109375 C-79.05601806640624 145.247958984375 -79.57687988281248 144.38654296875 -80.113525390625 143.4990234375 C-81 141 -81 141 -80.33837890625 138.509521484375 C-78.9436478629408 135.89433717314267 -77.54197754252232 133.30010359309807 -76.05078125 130.73828125 C-75.45773193359378 129.7152490234375 -74.8646826171875 128.692216796875 -74.253662109375 127.63818359375 C-73.61307861328123 126.5407080078125 -72.97249511718752 125.443232421875 -72.3125 124.3125 C-71.63840526473086 123.15205754476133 -70.96466474957253 121.99140926022832 -70.291259765625 120.83056640625 C-68.89179068615437 118.41865874854292 -67.49080028825074 116.00764413715063 -66.0888671875 113.59716796875 C-63.47865429728529 109.10606193803875 -60.887403368986895 104.60407467041586 -58.295654296875 100.102294921875 C-52.321986643249545 89.7270600364099 -46.310019796586914 79.37488223058247 -40.269287109375 69.03857421875 C-35.98755047956695 61.70687460962509 -31.737888869549977 54.357119420547605 -27.5 47 C-22.49971592794509 38.32129364339784 -17.4823247413766 29.652900680605285 -12.4375 21 C-11.878046874999995 20.0396484375 -11.318593749999991 19.079296874999997 -10.7421875 18.08984375 C-7.20656707119241 12.032431400886253 -3.6225465099317944 6.005822220107248 0 0 Z " fill="#FEB900" transform="translate(337,34)"/>
<path d="M0 0 C13.704746053100848 0.018151210522262318 27.407257382243444 -0.020596217773459102 41.11146378517151 -0.13002467155456543 C53.00023075516606 -0.22469120150236677 64.88847249224699 -0.27346834497541295 76.77761650085449 -0.28174781799316406 C83.8436412896221 -0.28844757312521097 90.90802692812292 -0.32181761221409033 97.97357177734375 -0.4073028564453125 C104.32720651534748 -0.4840629167097745 110.67916420037011 -0.5151784322084723 117.03324711322784 -0.491527259349823 C120.34408136934576 -0.4807483244105697 123.65049757482882 -0.49860807654732753 126.96090316772461 -0.5590305328369141 C146.65029164695483 -0.8998737456986987 146.65029164695483 -0.8998737456986987 151.2640266418457 2.252817153930664 C154.50426020982644 5.67950782467625 155.9160644670693 9.562557218121015 157.43157958984375 14.000656127929688 C158.51177902663642 15.986074987723043 159.6238490800809 17.954888795343663 160.78314208984375 19.895187377929688 C161.8764665253749 21.866636994058695 162.96755452181583 23.83932829565265 164.05657958984375 25.813156127929688 C168.7764735906801 34.30679173609872 173.57627031572042 42.745055431102685 178.49407958984375 51.12565612792969 C183.5971128121277 59.82294419276474 188.59825549474323 68.57092258735918 193.53948974609375 77.36100769042969 C197.41483798287362 84.23983870037767 201.37372390060892 91.06593387724189 205.36907958984375 97.87565612792969 C211.00311887337983 107.48051753401978 216.48817631112837 117.16217551223508 221.90203857421875 126.89274597167969 C222.72683715820313 128.37508728027342 222.72683715820313 128.37508728027342 223.56829833984375 129.8873748779297 C224.05000488281252 130.7558001708984 224.53171142578122 131.62422546386722 225.02801513671875 132.5189666748047 C226.01662760049146 134.26696557796174 227.04853935632798 135.99082407073706 228.11053466796875 137.6952362060547 C229.43157958984375 140.0006561279297 229.43157958984375 140.0006561279297 229.43157958984375 142.0006561279297 C227.51642168983687 142.81670611362443 225.59939124866662 143.62836244902485 223.68157958984375 144.4381561279297 C222.61423583984373 144.8906170654297 221.54689208984377 145.3430780029297 220.44720458984375 145.8092498779297 C216.1418254860248 147.51020923889445 212.68864687387713 148.12599478681227 208.05343627929688 148.13208389282227 C206.95560286521913 148.13592503786083 205.85776945114134 148.1397661828995 204.72666835784912 148.14372372627258 C203.52085644721984 148.14285724401475 202.31504453659056 148.14199076175692 201.07269287109375 148.14109802246094 C199.79142296791076 148.1440691447258 198.51015306472777 148.14704026699064 197.19005680084229 148.15010142326355 C193.63076180003003 148.15816986630375 190.07148696778597 148.15996091399114 186.51218390464783 148.16069889068604 C182.6742191930997 148.1625497899472 178.83626493955745 148.170097460472 174.99830627441406 148.1768341064453 C166.60337848673146 148.19041828924128 158.2084554742417 148.19644268317825 149.81351852416992 148.20084476470947 C144.56967823115576 148.20360784428118 139.32583978035666 148.20784539815622 134.08200073242188 148.21234893798828 C119.5587017390954 148.22454323333795 105.03540422209392 148.23484124348062 90.51210021972656 148.23822402954102 C89.58246190488336 148.23844359561804 88.65282359004021 148.238663161695 87.69501441717148 148.23888938128948 C86.76316371262072 148.23910765901212 85.83131300806997 148.23932593673464 84.87122440338135 148.23955082893372 C82.98297691272296 148.23999429278672 81.09472942278995 148.2404408561224 79.20648193359375 148.2408905029297 C78.26984801173211 148.24111193269493 77.33321408987047 148.24133336246013 76.36819732189178 148.24156150221825 C61.20283183766384 148.2455066439993 46.03751448943183 148.26295127718566 30.872167587280273 148.28625002503395 C15.29589016375624 148.30998648444506 -0.2803631375703617 148.32242697675065 -15.856658935546875 148.32359194755554 C-24.59953430441385 148.32450758043592 -33.34234700656273 148.3302314404616 -42.085205078125 148.3484115600586 C-49.53280670913796 148.36384373891542 -56.98032631727665 148.36891477712254 -64.42794090509415 148.3606734573841 C-68.22486675694418 148.35677754991968 -72.02162759612156 148.35764431713 -75.81853294372559 148.37173080444336 C-79.94369483067595 148.38689441421838 -84.0684879822058 148.37857164062274 -88.19366455078125 148.36814880371094 C-89.97561375617981 148.38023341059682 -89.97561375617981 148.38023341059682 -91.7935619354248 148.3925621509552 C-107.47391151848954 148.3001946826904 -121.79686739828074 143.64833604934506 -133.22857666015625 132.6139373779297 C-137.7739197862786 127.5374189282204 -141.1687282133544 121.86911651874891 -144.56842041015625 116.00065612792969 C-145.41533447265624 114.53910095214843 -145.41533447265624 114.53910095214843 -146.27935791015625 113.04801940917969 C-150.0305750375909 106.54856877941023 -153.74319855212602 100.02780972995293 -157.4439239501953 93.49954223632813 C-160.97552808440645 87.27382472101073 -164.54969603615558 81.07294886053415 -168.13092041015625 74.87565612792969 C-168.74096923828125 73.81838317871092 -169.35101806640625 72.7611102294922 -169.97955322265625 71.67179870605469 C-173.15298224152187 66.17356080305177 -176.3346518075403 60.68023812442908 -179.52545166015625 55.19206237792969 C-190.806812883331 35.76646264678266 -190.806812883331 35.76646264678266 -195.88092041015625 26.375656127929688 C-196.4133837890625 25.409705200195333 -196.4133837890625 25.409705200195333 -196.95660400390625 24.424240112304688 C-200.24546203099348 18.22613436120662 -201.68742966889616 12.728807138977231 -201.61651611328125 5.7404022216796875 C-201.60957229614257 4.849851379394522 -201.6026284790039 3.959300537109357 -201.59547424316406 3.0417633056640625 C-201.5865464782715 2.3681979370117006 -201.5776187133789 1.6946325683593955 -201.56842041015625 1.0006561279296875 C-181.51704392180537 0.8677869978340027 -161.46565288694057 0.7373455284356396 -141.41424369812012 0.6095046997070313 C-132.0959996886894 0.5500430445517281 -122.77776129407312 0.4898857773390546 -113.45953369140625 0.4279022216796875 C-75.63938224472037 0.17669402270530554 -37.82116525901699 -0.05772494332882161 0 0 Z " fill="#0083FE" transform="translate(201.56842041015625,336.9993438720703)"/>
<path d="M0 0 C53.129999999999995 0 106.25999999999999 0 161 0 C161 23.0903345729522 147.044066570503 41.34767701689566 135.6640625 60.73828125 C132.57728877765396 66.00196460710583 129.52573443001927 71.28509651953112 126.4853515625 76.57568359375 C120.88208053449989 86.32478691254596 115.24591273029336 96.05435712969677 109.53582763671875 105.74130249023438 C108.53513103919323 107.44035216965216 107.53824716524264 109.1416456701985 106.54150390625 110.843017578125 C95.88211214343028 128.86956472014293 95.88211214343028 128.86956472014293 88.8125 135.0625 C87.99394531249999 135.79597656249996 87.17539062499998 136.52945312500003 86.33203125 137.28515625 C84.11325191088622 138.9167209566515 82.69015886594468 139.59802223842206 80 140 C73.64907849470416 129.31335323628105 67.43736607123321 118.5504004608614 61.27978515625 107.7513427734375 C56.37725369356235 99.15352534772313 51.452770935632316 90.56902785091603 46.5 82 C41.331588309157155 73.05451522051777 36.18568057993713 64.09645392145353 31.0625 55.125 C30.733718566894538 54.549272460937516 30.404937133789076 53.97354492187503 30.066192626953125 53.38037109375 C27.71002227013838 49.25402168357476 25.354945031035868 45.12704879570276 23 41 C20.490436174226033 36.60216516523889 17.98038678458329 32.20460834626073 15.469451904296875 27.80755615234375 C14.476002646280847 26.067440832151817 13.483226973328897 24.32694100828644 12.490478515625 22.58642578125 C8.796981244522613 16.117861277464783 5.062227138671176 9.676761795480104 1.269775390625 3.265625 C0 1 0 1 0 0 Z " fill="#FE4131" transform="translate(351,338)"/>
<path d="M0 0 C53.13 0 106.26 0 161 0 C157.20145704933 7.5970859013399945 153.42804728432705 14.889172374631869 149.0625 22.125 C147.91544148897657 24.04614401222068 146.76966162641844 25.968051905314667 145.625 27.890625 C145.03203125 28.88642578125001 144.4390625 29.882226562500023 143.828125 30.908203125 C140.69602713990744 36.205330168297564 137.6300443192276 41.54031327702728 134.5625 46.875 C129.73456937356133 55.26553362107319 124.88530681140662 63.64273689982565 120 72 C115.13888430223682 80.31746704544605 110.30856268851231 88.65204224016793 105.5 97 C100.43959526714764 105.78428594700443 95.35839020004273 114.55602381416759 90.25 123.3125 C89.66541015625 124.31474609374999 89.0808203125 125.31699218749998 88.478515625 126.349609375 C86.00794821160419 130.58027333616417 83.52647980191027 134.8024076353871 81 139 C74.25299411385544 138.17456842882274 70.46717241381486 133.81806813212057 66 129 C62.60384837793659 124.56083552022426 59.79686457313041 119.82787500037256 57 115 C56.153085937499995 113.53844482421874 56.153085937499995 113.53844482421874 55.2890625 112.04736328125 C51.537845372565336 105.54791265148054 47.82522185803024 99.02715360202325 44.12449645996094 92.49888610839844 C40.59289232574981 86.27316859308104 37.018724374000676 80.07229273260447 33.4375 73.875 C32.827451171875 72.81772705078123 32.21740234375 71.76045410156252 31.5888671875 70.671142578125 C28.415438168634374 65.17290467512203 25.23376860261595 59.67958199649945 22.04296875 54.19140625 C10.761607526825252 34.76580651885297 10.761607526825252 34.76580651885297 5.6875 25.375 C5.15503662109375 24.409049072265645 5.15503662109375 24.409049072265645 4.61181640625 23.423583984375 C0.3287375178193779 15.351792598992574 0 9.402122407561535 0 0 Z " fill="#0066DD" transform="translate(0,338)"/>
<path d="M0 0 C1.0637232971191395 -0.00715530395507713 2.127446594238279 -0.014310607910157813 3.2234039306640625 -0.0216827392578125 C4.966538696289064 -0.025716094970704262 4.966538696289064 -0.025716094970704262 6.7448883056640625 -0.0298309326171875 C8.587127304077143 -0.03968772888183736 8.587127304077143 -0.03968772888183736 10.466583251953125 -0.04974365234375 C14.537951102655825 -0.06947938708354684 18.609279524103442 -0.08114785489597764 22.680679321289063 -0.0911102294921875 C24.087016616909807 -0.09516032745770531 25.49335372141772 -0.09927732415239987 26.899690628051758 -0.10346031188964844 C33.51356501302783 -0.12250980752904184 40.12742830909863 -0.13673688530294115 46.741324841976166 -0.14507228136062622 C54.348704800527116 -0.15482024213816814 61.95579189600437 -0.18107638073356824 69.56306880712509 -0.22157317399978638 C75.45884761134101 -0.2518690706636768 81.35454316783495 -0.26655414518248577 87.25039821863174 -0.26985329389572144 C90.76365711954787 -0.2721900260283121 94.27660313862611 -0.28096733414383834 97.7897777557373 -0.30631446838378906 C101.72152109513718 -0.3342220278097727 105.6528890730084 -0.3297231462985586 109.58473205566406 -0.3227996826171875 C110.7286038208008 -0.3356097412109378 111.87247558593754 -0.34841979980468807 113.05101013183594 -0.3616180419921875 C122.50934468027094 -0.3013142662925823 131.3526579986543 1.670477377337022 139.74708557128906 6.1471710205078125 C139.06573700807706 9.812206388463878 137.4949873290883 12.603322453751396 135.64161682128906 15.819046020507813 C134.9950714111328 16.945847778320314 134.34852600097656 18.072649536132815 133.68238830566406 19.233596801757813 C132.97493012168928 20.45487089815167 132.26732547417686 21.676060161307923 131.55958557128906 22.897171020507813 C130.8301469220006 24.163731900082425 130.10106609184072 25.43049891739671 129.37232971191406 26.697463989257813 C124.27247615897807 35.55325522960629 119.12914825210953 44.384012927151446 113.96900939941406 53.20478820800781 C109.69986114802077 60.50262205577087 105.46656355927428 67.82051919171118 101.24708557128906 75.14717102050781 C95.87473677495558 84.47419430124448 90.46930827759462 93.78109182650672 85.03639221191406 103.07295227050781 C81.91176741359777 108.42160857823922 78.80166644619487 113.77828531311508 75.71192932128906 119.14717102050781 C75.37464813232424 119.73304992675781 75.03736694335936 120.31892883300782 74.68986511230469 120.92256164550781 C73.06028550475139 123.75400581975754 71.43265328747361 126.58654511798403 69.80763244628906 129.4206085205078 C66.56006284339901 135.06917427011282 63.2431155306615 140.64868911843243 59.74708557128906 146.1471710205078 C56.57267743045776 143.2208785343889 54.49363527028987 140.30371612799348 52.38380432128906 136.5456085205078 C51.752163696289074 135.42928039550782 51.12052307128906 134.31295227050782 50.46974182128906 133.1627960205078 C49.79133913271585 131.94926400922063 49.112954190859654 130.73572207681488 48.43458557128906 129.5221710205078 C47.72180316573497 128.25872154473285 47.00824909291185 126.9957071278971 46.29396057128906 125.73310852050781 C45.193196568075166 123.78717272621793 44.0929028244949 121.84098830281806 42.99497985839844 119.89344787597656 C39.45707383116928 113.61875249359366 35.85669658211185 107.38085999987038 32.24708557128906 101.14717102050781 C27.053882723766606 92.16222525848778 21.890421600676632 83.16071394337897 16.747085571289063 74.14717102050781 C11.580320283406763 65.09349715419657 6.395748958645072 56.050393820769315 1.1845855712890625 47.02217102050781 C0.5805792236328102 45.97480773925781 -0.023427124023442047 44.92744445800781 -0.6457366943359375 43.84834289550781 C-3.569464429647894 38.781741883283004 -6.499808052276819 33.71915842699264 -9.44586181640625 28.665512084960938 C-10.856572282340267 26.244527248689238 -12.264113858388129 23.821707753268853 -13.671340942382813 21.398696899414063 C-14.672041200218501 19.67874988662031 -15.677401368582252 17.96151681539491 -16.682846069335938 16.244338989257813 C-17.581846313476575 14.695772094726564 -17.581846313476575 14.695772094726564 -18.499008178710938 13.115921020507813 C-19.031954956054676 12.202620239257811 -19.564901733398443 11.28931945800781 -20.113998413085938 10.348342895507813 C-21.252914428710938 8.147171020507813 -21.252914428710938 8.147171020507813 -21.252914428710938 6.1471710205078125 C-19.337756528704062 5.331121034813066 -17.42072608753378 4.519464699412673 -15.502914428710938 3.7096710205078125 C-14.435570678710945 3.257210083007813 -13.368226928710925 2.804749145507813 -12.268539428710938 2.3385772705078125 C-8.01490000738039 0.658059105344833 -4.57756631795624 0.021186188565412323 0 0 Z " fill="#00831D" transform="translate(197.25291442871094,26.852828979492188)"/>
</svg>
